# xmcd
#
# Track frame offsets:
#	183
#	12933
#	24668
#	36423
#	48683
#	61570
#	74163
#	87255
#	99330
#	112588
#	124323
#	136645
#	148085
#	159723
#	166008
#	175030
#	185103
#	195058
#	204548
#	213405
#	224178
#
# Disc length: 3054 seconds
#
# Revision: 1
# Processed by: cddbd v1.4PL0 Copyright (c) Steve Scherf et al.
# Submitted via: audiograbber 1.81.00
#
DISCID=2f0bec15
DTITLE=Hank Williams Sr - Lost Highway
DYEAR=1900
DGENRE=Country
TTITLE0=There'll Be No Teardrops Tonight
TTITLE1=Lost On The River
TTITLE2=I Heard My Mother Praying
TTITLE3=Lost Highway
TTITLE4=May You Never Be Alone
TTITLE5=Dear Brother
TTITLE6=Jesus Remembered Me
TTITLE7=Honky Tonk Blues
TTITLE8=Mind Your Own Business
TTITLE9=A Teardrop On A Rose
TTITLE10=Wait For The Light To Shine
TTITLE11=The Angel Of Death
TTITLE12=Dixie Cannonball
TTITLE13=Sundown And Sorrow
TTITLE14=I'm Going Home
TTITLE15=Singing Waterfall
TTITLE16=No Not Now
TTITLE17=Blue Love In My Heart
TTITLE18=California Zephyr
TTITLE19=I'm Free At Last
TTITLE20=Alabama Waltz
EXTD=
EXTT0=
EXTT1=
EXTT2=
EXTT3=
EXTT4=
EXTT5=
EXTT6=
EXTT7=
EXTT8=
EXTT9=
EXTT10=
EXTT11=
EXTT12=
EXTT13=
EXTT14=
EXTT15=
EXTT16=
EXTT17=
EXTT18=
EXTT19=
EXTT20=
PLAYORDER=
